<?xml version="1.0" standalone="no"?>
<!DOCTYPE svg PUBLIC "-//W3C//DTD SVG 20010904//EN"
 "http://www.w3.org/TR/2001/REC-SVG-20010904/DTD/svg10.dtd">
<svg version="1.0" xmlns="http://www.w3.org/2000/svg"
 width="1034.000000pt" height="1034.000000pt" viewBox="0 0 1034.000000 1034.000000"
 preserveAspectRatio="xMidYMid meet">
<metadata>
Created by potrace 1.14, written by Peter Selinger 2001-2017
</metadata>
<g transform="translate(0.000000,1034.000000) scale(0.100000,-0.100000)"
fill="#000000" stroke="none">
<path d="M0 5170 l0 -5170 940 0 940 0 0 705 0 705 235 0 235 0 0 235 0 235
470 0 470 0 0 -235 0 -235 235 0 235 0 0 -235 0 -235 235 0 235 0 0 -235 0
-235 235 0 235 0 0 235 0 235 470 0 470 0 0 -235 0 -235 235 0 235 0 0 235 0
235 235 0 235 0 0 235 0 235 235 0 235 0 0 235 0 235 470 0 470 0 0 -235 0
-235 235 0 235 0 0 -705 0 -705 940 0 940 0 0 5170 0 5170 -5170 0 -5170 0 0
-5170z m6580 3995 l0 -235 470 0 470 0 0 -235 0 -235 235 0 235 0 0 -235 0
-235 235 0 235 0 0 -470 0 -470 235 0 235 0 0 -235 0 -235 -235 0 -235 0 0
-235 0 -235 235 0 235 0 0 -705 0 -705 -235 0 -235 0 0 -705 0 -705 -235 0
-235 0 0 -235 0 -235 -940 0 -940 0 0 -235 0 -235 470 0 470 0 0 -235 0 -235
-235 0 -235 0 0 -235 0 -235 -235 0 -235 0 0 -235 0 -235 -235 0 -235 0 0 235
0 235 -470 0 -470 0 0 -235 0 -235 -235 0 -235 0 0 235 0 235 -235 0 -235 0 0
235 0 235 -235 0 -235 0 0 235 0 235 470 0 470 0 0 235 0 235 -940 0 -940 0 0
235 0 235 -235 0 -235 0 0 705 0 705 -235 0 -235 0 0 705 0 705 235 0 235 0 0
235 0 235 -235 0 -235 0 0 235 0 235 235 0 235 0 0 470 0 470 235 0 235 0 0
235 0 235 235 0 235 0 0 235 0 235 1645 0 1645 0 0 235 0 235 235 0 235 0 0
-235z"/>
<path d="M2820 5875 l0 -705 470 0 470 0 0 235 0 235 -235 0 -235 0 0 235 0
235 235 0 235 0 0 235 0 235 -470 0 -470 0 0 -705z"/>
<path d="M6580 5875 l0 -705 470 0 470 0 0 235 0 235 -235 0 -235 0 0 235 0
235 235 0 235 0 0 235 0 235 -470 0 -470 0 0 -705z"/>
<path d="M4230 3525 l0 -235 940 0 940 0 0 235 0 235 -940 0 -940 0 0 -235z"/>
</g>
</svg>
