<svg xmlns="http://www.w3.org/2000/svg" viewBox="0 0 800 300" width="800" height="300">
  <defs>
    <!-- Define the Docker logo using the official whale path -->
    <!-- and filled rectangles for containers -->
    <g id="docker-logo" transform="scale(0.9)">
      <!-- Use CSS class for fill -->
      <path class="logo-fill" d="m472 228s-18-17-55-11c-4-29-35-46-35-46s-29 35-8 74c-6 3-16 7-31 7H68c-5 19-5 145 133 145 99 0 173-46 208-130 52 4 63-39 63-39"/>
      <!-- Filled Rectangles for Containers (using class for fill) -->
       <rect class="logo-fill" x="155" y="180" width="40" height="40" />
       <rect class="logo-fill" x="200" y="180" width="40" height="40" />
       <rect class="logo-fill" x="245" y="180" width="40" height="40" />
       <rect class="logo-fill" x="290" y="180" width="40" height="40" />
       <rect class="logo-fill" x="155" y="135" width="40" height="40" />
       <rect class="logo-fill" x="200" y="135" width="40" height="40" />
       <rect class="logo-fill" x="245" y="135" width="40" height="40" />
       <rect class="logo-fill" x="200" y="90" width="40" height="40" />
       <rect class="logo-fill" x="245" y="90" width="40" height="40" />
    </g>

    <!-- Define the arrowhead marker -->
    <marker id="arrowhead" markerWidth="10" markerHeight="7" refX="0" refY="3.5" orient="auto">
      <!-- Use CSS class for fill -->
      <polygon class="arrow-stroke" points="0 0, 10 3.5, 0 7"/>
    </marker>
  </defs>

  <!-- Styles for Light/Dark Mode Conformance -->
  <style>
    :root {
      /* Light Mode Defaults */
      --bg-color: #faf8f8;
      --primary-color: #24292e; /* Dark grey for text/icons */
      --label-bg-color: #3a404d; /* Darker box */
      --label-text-color: #ffffff; /* White text on dark box */
    }

    @media (prefers-color-scheme: dark) {
      :root {
        /* Dark Mode Overrides */
        --bg-color: #373534; /* Dark background */
        --primary-color: #dadada; /* Lighter grey for text/icons */
        --label-bg-color: #4a505d; /* Slightly lighter dark box */
        --label-text-color: #dadada; /* Lighter grey text on dark box */
      }
    }

    /* Apply variables */
    .diagram-bg { fill: var(--bg-color); }
    .logo-fill { fill: var(--primary-color); }
    .label-box { fill: var(--label-bg-color); rx: 8; ry: 8; }
    .label-text {
      font-family: Arial, sans-serif; font-size: 24px; font-weight: bold;
      fill: var(--label-text-color);
      text-anchor: middle; dominant-baseline: middle;
    }
    .component-text {
      font-family: Arial, sans-serif; font-size: 28px; font-weight: bold;
      fill: var(--primary-color);
      text-anchor: middle;
    }
    .arrow-line {
      stroke: var(--primary-color);
      stroke-width: 2; marker-end: url(#arrowhead);
    }
    .arrow-stroke { /* For marker */
        fill: var(--primary-color);
    }
    .arrow-text {
      font-family: Arial, sans-serif; font-size: 24px; font-weight: bold;
      fill: var(--primary-color);
      text-anchor: middle;
    }
  </style>

  <!-- Background Rectangle -->
  <rect width="100%" height="100%" class="diagram-bg"/>

  <!-- Client Section (Placement Adjusted) -->
  <g id="client">
    <!-- Centered Label Box -->
    <rect class="label-box" x="150" y="30" width="120" height="45"/>
    <text class="label-text" x="210" y="52.5">Client</text>
    <!-- Adjusted logo position -->
    <use href="#docker-logo" transform="translate(115, 60) scale(0.45)"/>
    <!-- Adjusted text position -->
    <text class="component-text" x="205" y="255">CLI</text>
  </g>

  <!-- Server Section (Placement Adjusted) -->
  <g id="server">
    <!-- Centered Label Box -->
    <rect class="label-box" x="530" y="30" width="120" height="45"/>
    <text class="label-text" x="590" y="52.5">Server</text>
    <!-- Adjusted logo position -->
    <use href="#docker-logo" transform="translate(495, 60) scale(0.45)"/>
    <!-- Adjusted text position -->
    <text class="component-text" x="595" y="255">Engine</text>
  </g>

  <!-- Connection Arrow and Text (Placement Adjusted) -->
  <g id="connection">
    <!-- Adjusted arrow vertical position -->
    <line class="arrow-line" x1="320" y1="175" x2="480" y2="175"/>
     <!-- Adjusted text position -->
    <text class="arrow-text" x="400" y="155">API calls</text>
  </g>

</svg>